<?xml version="1.0" encoding="UTF-8"?>
<svg width="100" height="100" viewBox="0 0 100 100" xmlns="http://www.w3.org/2000/svg">
  <!-- Background -->
  <rect width="100" height="100" rx="20" fill="#FE6B41" />
  
  <!-- Concert Ticket Icon -->
  <g fill="white">
    <!-- Ticket Outline -->
    <path d="M25,35 h50 a5,5 0 0 1 5,5 v20 a5,5 0 0 1 -5,5 h-50 a5,5 0 0 1 -5,-5 v-20 a5,5 0 0 1 5,-5 z" />
    <!-- Ticket Orange Fill -->
    <path d="M27,37 h46 a3,3 0 0 1 3,3 v18 a3,3 0 0 1 -3,3 h-46 a3,3 0 0 1 -3,-3 v-18 a3,3 0 0 1 3,-3 z" fill="#FE6B41" />
    <!-- Ticket Perforation -->
    <path d="M58,37 v26" stroke="white" stroke-dasharray="3,3" stroke-width="2" />
    <!-- Ticket Text Lines -->
    <rect x="30" y="42" width="20" height="2" rx="1" />
    <rect x="30" y="48" width="15" height="2" rx="1" />
    <rect x="30" y="54" width="22" height="2" rx="1" />
    <!-- Stub Text -->
    <rect x="65" y="45" width="8" height="10" rx="1" />
  </g>
</svg>